<?xml version="1.0" encoding="utf-8" standalone="no"?>
<!DOCTYPE svg PUBLIC "-//W3C//DTD SVG 1.1//EN"
  "http://www.w3.org/Graphics/SVG/1.1/DTD/svg11.dtd">
<svg xmlns:xlink="http://www.w3.org/1999/xlink" width="475.2pt" height="302.4pt" viewBox="0 0 475.2 302.4" xmlns="http://www.w3.org/2000/svg" version="1.1">
 <metadata>
  <rdf:RDF xmlns:dc="http://purl.org/dc/elements/1.1/" xmlns:cc="http://creativecommons.org/ns#" xmlns:rdf="http://www.w3.org/1999/02/22-rdf-syntax-ns#">
   <cc:Work>
    <dc:type rdf:resource="http://purl.org/dc/dcmitype/StillImage"/>
    <dc:date>2026-07-08T15:45:26.412194</dc:date>
    <dc:format>image/svg+xml</dc:format>
    <dc:creator>
     <cc:Agent>
      <dc:title>Matplotlib v3.11.0, https://matplotlib.org/</dc:title>
     </cc:Agent>
    </dc:creator>
   </cc:Work>
  </rdf:RDF>
 </metadata>
 <defs>
  <style type="text/css">*{stroke-linejoin: round; stroke-linecap: butt}</style>
 </defs>
 <g id="figure_1">
  <g id="patch_1">
   <path d="M 0 302.4 
L 475.2 302.4 
L 475.2 0 
L 0 0 
L 0 302.4 
z
" style="fill: none"/>
  </g>
  <g id="axes_1">
   <g id="patch_2">
    <path d="M 51.562344 260.277656 
L 464.4 260.277656 
L 464.4 10.8 
L 51.562344 10.8 
L 51.562344 260.277656 
z
" style="fill: none"/>
   </g>
   <g id="line2d_1">
    <path d="M 70.327692 38.723187 
L 341.582456 303.4 
L 341.582456 303.4 
" clip-path="url(#p4874345c7a)" style="fill: none; stroke-dasharray: 3.7,1.6; stroke-dashoffset: 0; stroke: #dfe6f5; stroke-opacity: 0.45"/>
   </g>
   <g id="line2d_2">
    <path d="M 70.327692 91.456813 
L 432.345295 303.4 
L 432.345295 303.4 
" clip-path="url(#p4874345c7a)" style="fill: none; stroke-dasharray: 3.7,1.6; stroke-dashoffset: 0; stroke: #dfe6f5; stroke-opacity: 0.45"/>
   </g>
   <g id="line2d_3">
    <path d="M 70.327692 176.050337 
L 445.634652 267.601771 
L 445.634652 267.601771 
" clip-path="url(#p4874345c7a)" style="fill: none; stroke-dasharray: 3.7,1.6; stroke-dashoffset: 0; stroke: #dfe6f5; stroke-opacity: 0.45"/>
   </g>
   <g id="matplotlib.axis_1">
    <g id="xtick_1">
     <g id="line2d_4">
      <defs>
       <path id="mbe5c5d893b" d="M 0 0 
L 0 3.5 
" style="stroke: #dfe6f5; stroke-width: 0.8"/>
      </defs>
      <g>
       <use xlink:href="#mbe5c5d893b" x="70.327692" y="260.277656" style="fill: #dfe6f5; stroke: #dfe6f5; stroke-width: 0.8"/>
      </g>
     </g>
     <g id="text_1">
      <!-- 0 -->
      <g style="fill: #dfe6f5" transform="translate(67.146442 274.875313) scale(0.1 -0.1)">
       <defs>
        <path id="DejaVuSans-13" d="M 2034 4250 
Q 1547 4250 1301 3770 
Q 1056 3291 1056 2328 
Q 1056 1369 1301 889 
Q 1547 409 2034 409 
Q 2525 409 2770 889 
Q 3016 1369 3016 2328 
Q 3016 3291 2770 3770 
Q 2525 4250 2034 4250 
z
M 2034 4750 
Q 2819 4750 3233 4129 
Q 3647 3509 3647 2328 
Q 3647 1150 3233 529 
Q 2819 -91 2034 -91 
Q 1250 -91 836 529 
Q 422 1150 422 2328 
Q 422 3509 836 4129 
Q 1250 4750 2034 4750 
z
" transform="scale(0.015625)"/>
       </defs>
       <use xlink:href="#DejaVuSans-13"/>
      </g>
     </g>
    </g>
    <g id="xtick_2">
     <g id="line2d_5">
      <g>
       <use xlink:href="#mbe5c5d893b" x="145.389084" y="260.277656" style="fill: #dfe6f5; stroke: #dfe6f5; stroke-width: 0.8"/>
      </g>
     </g>
     <g id="text_2">
      <!-- 50 -->
      <g style="fill: #dfe6f5" transform="translate(139.026584 274.875313) scale(0.1 -0.1)">
       <defs>
        <path id="DejaVuSans-18" d="M 691 4666 
L 3169 4666 
L 3169 4134 
L 1269 4134 
L 1269 2991 
Q 1406 3038 1543 3061 
Q 1681 3084 1819 3084 
Q 2600 3084 3056 2656 
Q 3513 2228 3513 1497 
Q 3513 744 3044 326 
Q 2575 -91 1722 -91 
Q 1428 -91 1123 -41 
Q 819 9 494 109 
L 494 744 
Q 775 591 1075 516 
Q 1375 441 1709 441 
Q 2250 441 2565 725 
Q 2881 1009 2881 1497 
Q 2881 1984 2565 2268 
Q 2250 2553 1709 2553 
Q 1456 2553 1204 2497 
Q 953 2441 691 2322 
L 691 4666 
z
" transform="scale(0.015625)"/>
       </defs>
       <use xlink:href="#DejaVuSans-18"/>
       <use xlink:href="#DejaVuSans-13" transform="translate(63.625 0)"/>
      </g>
     </g>
    </g>
    <g id="xtick_3">
     <g id="line2d_6">
      <g>
       <use xlink:href="#mbe5c5d893b" x="220.450476" y="260.277656" style="fill: #dfe6f5; stroke: #dfe6f5; stroke-width: 0.8"/>
      </g>
     </g>
     <g id="text_3">
      <!-- 100 -->
      <g style="fill: #dfe6f5" transform="translate(210.906726 274.875313) scale(0.1 -0.1)">
       <defs>
        <path id="DejaVuSans-14" d="M 794 531 
L 1825 531 
L 1825 4091 
L 703 3866 
L 703 4441 
L 1819 4666 
L 2450 4666 
L 2450 531 
L 3481 531 
L 3481 0 
L 794 0 
L 794 531 
z
" transform="scale(0.015625)"/>
       </defs>
       <use xlink:href="#DejaVuSans-14"/>
       <use xlink:href="#DejaVuSans-13" transform="translate(63.625 0)"/>
       <use xlink:href="#DejaVuSans-13" transform="translate(127.25 0)"/>
      </g>
     </g>
    </g>
    <g id="xtick_4">
     <g id="line2d_7">
      <g>
       <use xlink:href="#mbe5c5d893b" x="295.511868" y="260.277656" style="fill: #dfe6f5; stroke: #dfe6f5; stroke-width: 0.8"/>
      </g>
     </g>
     <g id="text_4">
      <!-- 150 -->
      <g style="fill: #dfe6f5" transform="translate(285.968118 274.875313) scale(0.1 -0.1)">
       <use xlink:href="#DejaVuSans-14"/>
       <use xlink:href="#DejaVuSans-18" transform="translate(63.625 0)"/>
       <use xlink:href="#DejaVuSans-13" transform="translate(127.25 0)"/>
      </g>
     </g>
    </g>
    <g id="xtick_5">
     <g id="line2d_8">
      <g>
       <use xlink:href="#mbe5c5d893b" x="370.57326" y="260.277656" style="fill: #dfe6f5; stroke: #dfe6f5; stroke-width: 0.8"/>
      </g>
     </g>
     <g id="text_5">
      <!-- 200 -->
      <g style="fill: #dfe6f5" transform="translate(361.02951 274.875313) scale(0.1 -0.1)">
       <defs>
        <path id="DejaVuSans-15" d="M 1228 531 
L 3431 531 
L 3431 0 
L 469 0 
L 469 531 
Q 828 903 1448 1529 
Q 2069 2156 2228 2338 
Q 2531 2678 2651 2914 
Q 2772 3150 2772 3378 
Q 2772 3750 2511 3984 
Q 2250 4219 1831 4219 
Q 1534 4219 1204 4116 
Q 875 4013 500 3803 
L 500 4441 
Q 881 4594 1212 4672 
Q 1544 4750 1819 4750 
Q 2544 4750 2975 4387 
Q 3406 4025 3406 3419 
Q 3406 3131 3298 2873 
Q 3191 2616 2906 2266 
Q 2828 2175 2409 1742 
Q 1991 1309 1228 531 
z
" transform="scale(0.015625)"/>
       </defs>
       <use xlink:href="#DejaVuSans-15"/>
       <use xlink:href="#DejaVuSans-13" transform="translate(63.625 0)"/>
       <use xlink:href="#DejaVuSans-13" transform="translate(127.25 0)"/>
      </g>
     </g>
    </g>
    <g id="xtick_6">
     <g id="line2d_9">
      <g>
       <use xlink:href="#mbe5c5d893b" x="445.634652" y="260.277656" style="fill: #dfe6f5; stroke: #dfe6f5; stroke-width: 0.8"/>
      </g>
     </g>
     <g id="text_6">
      <!-- 250 -->
      <g style="fill: #dfe6f5" transform="translate(436.090902 274.875313) scale(0.1 -0.1)">
       <use xlink:href="#DejaVuSans-15"/>
       <use xlink:href="#DejaVuSans-18" transform="translate(63.625 0)"/>
       <use xlink:href="#DejaVuSans-13" transform="translate(127.25 0)"/>
      </g>
     </g>
    </g>
    <g id="text_7">
     <!-- state  x  (reservoir level) -->
     <g style="fill: #dfe6f5" transform="translate(196.396797 288.876094) scale(0.1 -0.1)">
      <defs>
       <path id="DejaVuSans-56" d="M 2834 3397 
L 2834 2853 
Q 2591 2978 2328 3040 
Q 2066 3103 1784 3103 
Q 1356 3103 1142 2972 
Q 928 2841 928 2578 
Q 928 2378 1081 2264 
Q 1234 2150 1697 2047 
L 1894 2003 
Q 2506 1872 2764 1633 
Q 3022 1394 3022 966 
Q 3022 478 2636 193 
Q 2250 -91 1575 -91 
Q 1294 -91 989 -36 
Q 684 19 347 128 
L 347 722 
Q 666 556 975 473 
Q 1284 391 1588 391 
Q 1994 391 2212 530 
Q 2431 669 2431 922 
Q 2431 1156 2273 1281 
Q 2116 1406 1581 1522 
L 1381 1569 
Q 847 1681 609 1914 
Q 372 2147 372 2553 
Q 372 3047 722 3315 
Q 1072 3584 1716 3584 
Q 2034 3584 2315 3537 
Q 2597 3491 2834 3397 
z
" transform="scale(0.015625)"/>
       <path id="DejaVuSans-57" d="M 1172 4494 
L 1172 3500 
L 2356 3500 
L 2356 3053 
L 1172 3053 
L 1172 1153 
Q 1172 725 1289 603 
Q 1406 481 1766 481 
L 2356 481 
L 2356 0 
L 1766 0 
Q 1100 0 847 248 
Q 594 497 594 1153 
L 594 3053 
L 172 3053 
L 172 3500 
L 594 3500 
L 594 4494 
L 1172 4494 
z
" transform="scale(0.015625)"/>
       <path id="DejaVuSans-44" d="M 2194 1759 
Q 1497 1759 1228 1600 
Q 959 1441 959 1056 
Q 959 750 1161 570 
Q 1363 391 1709 391 
Q 2188 391 2477 730 
Q 2766 1069 2766 1631 
L 2766 1759 
L 2194 1759 
z
M 3341 1997 
L 3341 0 
L 2766 0 
L 2766 531 
Q 2569 213 2275 61 
Q 1981 -91 1556 -91 
Q 1019 -91 701 211 
Q 384 513 384 1019 
Q 384 1609 779 1909 
Q 1175 2209 1959 2209 
L 2766 2209 
L 2766 2266 
Q 2766 2663 2505 2880 
Q 2244 3097 1772 3097 
Q 1472 3097 1187 3025 
Q 903 2953 641 2809 
L 641 3341 
Q 956 3463 1253 3523 
Q 1550 3584 1831 3584 
Q 2591 3584 2966 3190 
Q 3341 2797 3341 1997 
z
" transform="scale(0.015625)"/>
       <path id="DejaVuSans-48" d="M 3597 1894 
L 3597 1613 
L 953 1613 
Q 991 1019 1311 708 
Q 1631 397 2203 397 
Q 2534 397 2845 478 
Q 3156 559 3463 722 
L 3463 178 
Q 3153 47 2828 -22 
Q 2503 -91 2169 -91 
Q 1331 -91 842 396 
Q 353 884 353 1716 
Q 353 2575 817 3079 
Q 1281 3584 2069 3584 
Q 2775 3584 3186 3129 
Q 3597 2675 3597 1894 
z
M 3022 2063 
Q 3016 2534 2758 2815 
Q 2500 3097 2075 3097 
Q 1594 3097 1305 2825 
Q 1016 2553 972 2059 
L 3022 2063 
z
" transform="scale(0.015625)"/>
       <path id="DejaVuSans-3" transform="scale(0.015625)"/>
       <path id="DejaVuSans-5b" d="M 3513 3500 
L 2247 1797 
L 3578 0 
L 2900 0 
L 1881 1375 
L 863 0 
L 184 0 
L 1544 1831 
L 300 3500 
L 978 3500 
L 1906 2253 
L 2834 3500 
L 3513 3500 
z
" transform="scale(0.015625)"/>
       <path id="DejaVuSans-b" d="M 1984 4856 
Q 1566 4138 1362 3434 
Q 1159 2731 1159 2009 
Q 1159 1288 1364 580 
Q 1569 -128 1984 -844 
L 1484 -844 
Q 1016 -109 783 600 
Q 550 1309 550 2009 
Q 550 2706 781 3412 
Q 1013 4119 1484 4856 
L 1984 4856 
z
" transform="scale(0.015625)"/>
       <path id="DejaVuSans-55" d="M 2631 2963 
Q 2534 3019 2420 3045 
Q 2306 3072 2169 3072 
Q 1681 3072 1420 2755 
Q 1159 2438 1159 1844 
L 1159 0 
L 581 0 
L 581 3500 
L 1159 3500 
L 1159 2956 
Q 1341 3275 1631 3429 
Q 1922 3584 2338 3584 
Q 2397 3584 2469 3576 
Q 2541 3569 2628 3553 
L 2631 2963 
z
" transform="scale(0.015625)"/>
       <path id="DejaVuSans-59" d="M 191 3500 
L 800 3500 
L 1894 563 
L 2988 3500 
L 3597 3500 
L 2284 0 
L 1503 0 
L 191 3500 
z
" transform="scale(0.015625)"/>
       <path id="DejaVuSans-52" d="M 1959 3097 
Q 1497 3097 1228 2736 
Q 959 2375 959 1747 
Q 959 1119 1226 758 
Q 1494 397 1959 397 
Q 2419 397 2687 759 
Q 2956 1122 2956 1747 
Q 2956 2369 2687 2733 
Q 2419 3097 1959 3097 
z
M 1959 3584 
Q 2709 3584 3137 3096 
Q 3566 2609 3566 1747 
Q 3566 888 3137 398 
Q 2709 -91 1959 -91 
Q 1206 -91 779 398 
Q 353 888 353 1747 
Q 353 2609 779 3096 
Q 1206 3584 1959 3584 
z
" transform="scale(0.015625)"/>
       <path id="DejaVuSans-4c" d="M 603 3500 
L 1178 3500 
L 1178 0 
L 603 0 
L 603 3500 
z
M 603 4863 
L 1178 4863 
L 1178 4134 
L 603 4134 
L 603 4863 
z
" transform="scale(0.015625)"/>
       <path id="DejaVuSans-4f" d="M 603 4863 
L 1178 4863 
L 1178 0 
L 603 0 
L 603 4863 
z
" transform="scale(0.015625)"/>
       <path id="DejaVuSans-c" d="M 513 4856 
L 1013 4856 
Q 1481 4119 1714 3412 
Q 1947 2706 1947 2009 
Q 1947 1309 1714 600 
Q 1481 -109 1013 -844 
L 513 -844 
Q 928 -128 1133 580 
Q 1338 1288 1338 2009 
Q 1338 2731 1133 3434 
Q 928 4138 513 4856 
z
" transform="scale(0.015625)"/>
      </defs>
      <use xlink:href="#DejaVuSans-56"/>
      <use xlink:href="#DejaVuSans-57" transform="translate(52.09375 0)"/>
      <use xlink:href="#DejaVuSans-44" transform="translate(91.296875 0)"/>
      <use xlink:href="#DejaVuSans-57" transform="translate(152.578125 0)"/>
      <use xlink:href="#DejaVuSans-48" transform="translate(191.78125 0)"/>
      <use xlink:href="#DejaVuSans-3" transform="translate(253.3125 0)"/>
      <use xlink:href="#DejaVuSans-3" transform="translate(285.09375 0)"/>
      <use xlink:href="#DejaVuSans-5b" transform="translate(316.875 0)"/>
      <use xlink:href="#DejaVuSans-3" transform="translate(376.0625 0)"/>
      <use xlink:href="#DejaVuSans-3" transform="translate(407.84375 0)"/>
      <use xlink:href="#DejaVuSans-b" transform="translate(439.625 0)"/>
      <use xlink:href="#DejaVuSans-55" transform="translate(478.640625 0)"/>
      <use xlink:href="#DejaVuSans-48" transform="translate(517.546875 0)"/>
      <use xlink:href="#DejaVuSans-56" transform="translate(579.078125 0)"/>
      <use xlink:href="#DejaVuSans-48" transform="translate(631.171875 0)"/>
      <use xlink:href="#DejaVuSans-55" transform="translate(692.703125 0)"/>
      <use xlink:href="#DejaVuSans-59" transform="translate(733.8125 0)"/>
      <use xlink:href="#DejaVuSans-52" transform="translate(793 0)"/>
      <use xlink:href="#DejaVuSans-4c" transform="translate(854.1875 0)"/>
      <use xlink:href="#DejaVuSans-55" transform="translate(881.96875 0)"/>
      <use xlink:href="#DejaVuSans-3" transform="translate(923.078125 0)"/>
      <use xlink:href="#DejaVuSans-4f" transform="translate(954.859375 0)"/>
      <use xlink:href="#DejaVuSans-48" transform="translate(982.640625 0)"/>
      <use xlink:href="#DejaVuSans-59" transform="translate(1044.171875 0)"/>
      <use xlink:href="#DejaVuSans-48" transform="translate(1103.359375 0)"/>
      <use xlink:href="#DejaVuSans-4f" transform="translate(1164.890625 0)"/>
      <use xlink:href="#DejaVuSans-c" transform="translate(1192.671875 0)"/>
     </g>
    </g>
   </g>
   <g id="matplotlib.axis_2">
    <g id="ytick_1">
     <g id="line2d_10">
      <defs>
       <path id="m4c72bc8481" d="M 0 0 
L -3.5 0 
" style="stroke: #dfe6f5; stroke-width: 0.8"/>
      </defs>
      <g>
       <use xlink:href="#m4c72bc8481" x="51.562344" y="260.277656" style="fill: #dfe6f5; stroke: #dfe6f5; stroke-width: 0.8"/>
      </g>
     </g>
     <g id="text_8">
      <!-- 0 -->
      <g style="fill: #dfe6f5" transform="translate(38.199844 264.076484) scale(0.1 -0.1)">
       <use xlink:href="#DejaVuSans-13"/>
      </g>
     </g>
    </g>
    <g id="ytick_2">
     <g id="line2d_11">
      <g>
       <use xlink:href="#m4c72bc8481" x="51.562344" y="223.657083" style="fill: #dfe6f5; stroke: #dfe6f5; stroke-width: 0.8"/>
      </g>
     </g>
     <g id="text_9">
      <!-- 100 -->
      <g style="fill: #dfe6f5" transform="translate(25.474844 227.455911) scale(0.1 -0.1)">
       <use xlink:href="#DejaVuSans-14"/>
       <use xlink:href="#DejaVuSans-13" transform="translate(63.625 0)"/>
       <use xlink:href="#DejaVuSans-13" transform="translate(127.25 0)"/>
      </g>
     </g>
    </g>
    <g id="ytick_3">
     <g id="line2d_12">
      <g>
       <use xlink:href="#m4c72bc8481" x="51.562344" y="187.036509" style="fill: #dfe6f5; stroke: #dfe6f5; stroke-width: 0.8"/>
      </g>
     </g>
     <g id="text_10">
      <!-- 200 -->
      <g style="fill: #dfe6f5" transform="translate(25.474844 190.835338) scale(0.1 -0.1)">
       <use xlink:href="#DejaVuSans-15"/>
       <use xlink:href="#DejaVuSans-13" transform="translate(63.625 0)"/>
       <use xlink:href="#DejaVuSans-13" transform="translate(127.25 0)"/>
      </g>
     </g>
    </g>
    <g id="ytick_4">
     <g id="line2d_13">
      <g>
       <use xlink:href="#m4c72bc8481" x="51.562344" y="150.415936" style="fill: #dfe6f5; stroke: #dfe6f5; stroke-width: 0.8"/>
      </g>
     </g>
     <g id="text_11">
      <!-- 300 -->
      <g style="fill: #dfe6f5" transform="translate(25.474844 154.214764) scale(0.1 -0.1)">
       <defs>
        <path id="DejaVuSans-16" d="M 2597 2516 
Q 3050 2419 3304 2112 
Q 3559 1806 3559 1356 
Q 3559 666 3084 287 
Q 2609 -91 1734 -91 
Q 1441 -91 1130 -33 
Q 819 25 488 141 
L 488 750 
Q 750 597 1062 519 
Q 1375 441 1716 441 
Q 2309 441 2620 675 
Q 2931 909 2931 1356 
Q 2931 1769 2642 2001 
Q 2353 2234 1838 2234 
L 1294 2234 
L 1294 2753 
L 1863 2753 
Q 2328 2753 2575 2939 
Q 2822 3125 2822 3475 
Q 2822 3834 2567 4026 
Q 2313 4219 1838 4219 
Q 1578 4219 1281 4162 
Q 984 4106 628 3988 
L 628 4550 
Q 988 4650 1302 4700 
Q 1616 4750 1894 4750 
Q 2613 4750 3031 4423 
Q 3450 4097 3450 3541 
Q 3450 3153 3228 2886 
Q 3006 2619 2597 2516 
z
" transform="scale(0.015625)"/>
       </defs>
       <use xlink:href="#DejaVuSans-16"/>
       <use xlink:href="#DejaVuSans-13" transform="translate(63.625 0)"/>
       <use xlink:href="#DejaVuSans-13" transform="translate(127.25 0)"/>
      </g>
     </g>
    </g>
    <g id="ytick_5">
     <g id="line2d_14">
      <g>
       <use xlink:href="#m4c72bc8481" x="51.562344" y="113.795363" style="fill: #dfe6f5; stroke: #dfe6f5; stroke-width: 0.8"/>
      </g>
     </g>
     <g id="text_12">
      <!-- 400 -->
      <g style="fill: #dfe6f5" transform="translate(25.474844 117.594191) scale(0.1 -0.1)">
       <defs>
        <path id="DejaVuSans-17" d="M 2419 4116 
L 825 1625 
L 2419 1625 
L 2419 4116 
z
M 2253 4666 
L 3047 4666 
L 3047 1625 
L 3713 1625 
L 3713 1100 
L 3047 1100 
L 3047 0 
L 2419 0 
L 2419 1100 
L 313 1100 
L 313 1709 
L 2253 4666 
z
" transform="scale(0.015625)"/>
       </defs>
       <use xlink:href="#DejaVuSans-17"/>
       <use xlink:href="#DejaVuSans-13" transform="translate(63.625 0)"/>
       <use xlink:href="#DejaVuSans-13" transform="translate(127.25 0)"/>
      </g>
     </g>
    </g>
    <g id="ytick_6">
     <g id="line2d_15">
      <g>
       <use xlink:href="#m4c72bc8481" x="51.562344" y="77.174789" style="fill: #dfe6f5; stroke: #dfe6f5; stroke-width: 0.8"/>
      </g>
     </g>
     <g id="text_13">
      <!-- 500 -->
      <g style="fill: #dfe6f5" transform="translate(25.474844 80.973617) scale(0.1 -0.1)">
       <use xlink:href="#DejaVuSans-18"/>
       <use xlink:href="#DejaVuSans-13" transform="translate(63.625 0)"/>
       <use xlink:href="#DejaVuSans-13" transform="translate(127.25 0)"/>
      </g>
     </g>
    </g>
    <g id="ytick_7">
     <g id="line2d_16">
      <g>
       <use xlink:href="#m4c72bc8481" x="51.562344" y="40.554216" style="fill: #dfe6f5; stroke: #dfe6f5; stroke-width: 0.8"/>
      </g>
     </g>
     <g id="text_14">
      <!-- 600 -->
      <g style="fill: #dfe6f5" transform="translate(25.474844 44.353044) scale(0.1 -0.1)">
       <defs>
        <path id="DejaVuSans-19" d="M 2113 2584 
Q 1688 2584 1439 2293 
Q 1191 2003 1191 1497 
Q 1191 994 1439 701 
Q 1688 409 2113 409 
Q 2538 409 2786 701 
Q 3034 994 3034 1497 
Q 3034 2003 2786 2293 
Q 2538 2584 2113 2584 
z
M 3366 4563 
L 3366 3988 
Q 3128 4100 2886 4159 
Q 2644 4219 2406 4219 
Q 1781 4219 1451 3797 
Q 1122 3375 1075 2522 
Q 1259 2794 1537 2939 
Q 1816 3084 2150 3084 
Q 2853 3084 3261 2657 
Q 3669 2231 3669 1497 
Q 3669 778 3244 343 
Q 2819 -91 2113 -91 
Q 1303 -91 875 529 
Q 447 1150 447 2328 
Q 447 3434 972 4092 
Q 1497 4750 2381 4750 
Q 2619 4750 2861 4703 
Q 3103 4656 3366 4563 
z
" transform="scale(0.015625)"/>
       </defs>
       <use xlink:href="#DejaVuSans-19"/>
       <use xlink:href="#DejaVuSans-13" transform="translate(63.625 0)"/>
       <use xlink:href="#DejaVuSans-13" transform="translate(127.25 0)"/>
      </g>
     </g>
    </g>
    <g id="text_15">
     <!-- expected future cost -->
     <g style="fill: #dfe6f5" transform="translate(19.0725 187.329453) rotate(-90) scale(0.1 -0.1)">
      <defs>
       <path id="DejaVuSans-53" d="M 1159 525 
L 1159 -1331 
L 581 -1331 
L 581 3500 
L 1159 3500 
L 1159 2969 
Q 1341 3281 1617 3432 
Q 1894 3584 2278 3584 
Q 2916 3584 3314 3078 
Q 3713 2572 3713 1747 
Q 3713 922 3314 415 
Q 2916 -91 2278 -91 
Q 1894 -91 1617 61 
Q 1341 213 1159 525 
z
M 3116 1747 
Q 3116 2381 2855 2742 
Q 2594 3103 2138 3103 
Q 1681 3103 1420 2742 
Q 1159 2381 1159 1747 
Q 1159 1113 1420 752 
Q 1681 391 2138 391 
Q 2594 391 2855 752 
Q 3116 1113 3116 1747 
z
" transform="scale(0.015625)"/>
       <path id="DejaVuSans-46" d="M 3122 3366 
L 3122 2828 
Q 2878 2963 2633 3030 
Q 2388 3097 2138 3097 
Q 1578 3097 1268 2742 
Q 959 2388 959 1747 
Q 959 1106 1268 751 
Q 1578 397 2138 397 
Q 2388 397 2633 464 
Q 2878 531 3122 666 
L 3122 134 
Q 2881 22 2623 -34 
Q 2366 -91 2075 -91 
Q 1284 -91 818 406 
Q 353 903 353 1747 
Q 353 2603 823 3093 
Q 1294 3584 2113 3584 
Q 2378 3584 2631 3529 
Q 2884 3475 3122 3366 
z
" transform="scale(0.015625)"/>
       <path id="DejaVuSans-47" d="M 2906 2969 
L 2906 4863 
L 3481 4863 
L 3481 0 
L 2906 0 
L 2906 525 
Q 2725 213 2448 61 
Q 2172 -91 1784 -91 
Q 1150 -91 751 415 
Q 353 922 353 1747 
Q 353 2572 751 3078 
Q 1150 3584 1784 3584 
Q 2172 3584 2448 3432 
Q 2725 3281 2906 2969 
z
M 947 1747 
Q 947 1113 1208 752 
Q 1469 391 1925 391 
Q 2381 391 2643 752 
Q 2906 1113 2906 1747 
Q 2906 2381 2643 2742 
Q 2381 3103 1925 3103 
Q 1469 3103 1208 2742 
Q 947 2381 947 1747 
z
" transform="scale(0.015625)"/>
       <path id="DejaVuSans-49" d="M 2375 4863 
L 2375 4384 
L 1825 4384 
Q 1516 4384 1395 4259 
Q 1275 4134 1275 3809 
L 1275 3500 
L 2222 3500 
L 2222 3053 
L 1275 3053 
L 1275 0 
L 697 0 
L 697 3053 
L 147 3053 
L 147 3500 
L 697 3500 
L 697 3744 
Q 697 4328 969 4595 
Q 1241 4863 1831 4863 
L 2375 4863 
z
" transform="scale(0.015625)"/>
       <path id="DejaVuSans-58" d="M 544 1381 
L 544 3500 
L 1119 3500 
L 1119 1403 
Q 1119 906 1312 657 
Q 1506 409 1894 409 
Q 2359 409 2629 706 
Q 2900 1003 2900 1516 
L 2900 3500 
L 3475 3500 
L 3475 0 
L 2900 0 
L 2900 538 
Q 2691 219 2414 64 
Q 2138 -91 1772 -91 
Q 1169 -91 856 284 
Q 544 659 544 1381 
z
M 1991 3584 
L 1991 3584 
z
" transform="scale(0.015625)"/>
      </defs>
      <use xlink:href="#DejaVuSans-48"/>
      <use xlink:href="#DejaVuSans-5b" transform="translate(59.78125 0)"/>
      <use xlink:href="#DejaVuSans-53" transform="translate(118.96875 0)"/>
      <use xlink:href="#DejaVuSans-48" transform="translate(182.453125 0)"/>
      <use xlink:href="#DejaVuSans-46" transform="translate(243.984375 0)"/>
      <use xlink:href="#DejaVuSans-57" transform="translate(298.96875 0)"/>
      <use xlink:href="#DejaVuSans-48" transform="translate(338.171875 0)"/>
      <use xlink:href="#DejaVuSans-47" transform="translate(399.703125 0)"/>
      <use xlink:href="#DejaVuSans-3" transform="translate(463.1875 0)"/>
      <use xlink:href="#DejaVuSans-49" transform="translate(494.96875 0)"/>
      <use xlink:href="#DejaVuSans-58" transform="translate(530.171875 0)"/>
      <use xlink:href="#DejaVuSans-57" transform="translate(593.546875 0)"/>
      <use xlink:href="#DejaVuSans-58" transform="translate(632.75 0)"/>
      <use xlink:href="#DejaVuSans-55" transform="translate(696.125 0)"/>
      <use xlink:href="#DejaVuSans-48" transform="translate(735.03125 0)"/>
      <use xlink:href="#DejaVuSans-3" transform="translate(796.5625 0)"/>
      <use xlink:href="#DejaVuSans-46" transform="translate(828.34375 0)"/>
      <use xlink:href="#DejaVuSans-52" transform="translate(883.328125 0)"/>
      <use xlink:href="#DejaVuSans-56" transform="translate(944.515625 0)"/>
      <use xlink:href="#DejaVuSans-57" transform="translate(996.609375 0)"/>
     </g>
    </g>
   </g>
   <g id="line2d_17">
    <path d="M 70.327692 38.723187 
L 205.77682 170.755498 
L 317.710475 236.287051 
L 319.591713 236.855174 
L 445.634652 267.601771 
L 445.634652 267.601771 
" clip-path="url(#p4874345c7a)" style="fill: none; stroke: #fb923c; stroke-width: 2.4; stroke-linecap: square"/>
   </g>
   <g id="patch_3">
    <path d="M 51.562344 260.277656 
L 51.562344 10.8 
" style="fill: none; stroke: #dfe6f5; stroke-width: 0.8; stroke-linejoin: miter; stroke-linecap: square"/>
   </g>
   <g id="patch_4">
    <path d="M 51.562344 260.277656 
L 464.4 260.277656 
" style="fill: none; stroke: #dfe6f5; stroke-width: 0.8; stroke-linejoin: miter; stroke-linecap: square"/>
   </g>
   <g id="line2d_18">
    <path d="M 70.327692 29.568044 
L 80.6745 42.013958 
L 91.021309 54.111955 
L 101.368117 65.862036 
L 111.714925 77.264201 
L 122.061734 88.318449 
L 132.408542 99.024782 
L 142.755351 109.383198 
L 152.16154 118.498029 
L 161.56773 127.325326 
L 170.973919 135.865089 
L 180.380109 144.117318 
L 189.786298 152.082012 
L 199.192488 159.759173 
L 208.598677 167.148799 
L 218.004867 174.250892 
L 227.411056 181.06545 
L 236.817246 187.592474 
L 246.223435 193.831964 
L 255.629625 199.78392 
L 265.035814 205.448342 
L 273.501385 210.30048 
L 281.966955 214.919715 
L 290.432526 219.306048 
L 298.898096 223.459478 
L 307.363667 227.380005 
L 315.829237 231.06763 
L 324.294808 234.522353 
L 332.760378 237.744172 
L 341.225949 240.733089 
L 349.691519 243.489104 
L 358.15709 246.012215 
L 366.62266 248.302424 
L 375.088231 250.359731 
L 383.553801 252.184135 
L 392.019372 253.775636 
L 400.484942 255.134235 
L 408.950513 256.259931 
L 417.416084 257.152724 
L 425.881654 257.812615 
L 434.347225 258.239603 
L 442.812795 258.433689 
L 445.634652 258.446628 
L 445.634652 258.446628 
" clip-path="url(#p4874345c7a)" style="fill: none; stroke: #dfe6f5; stroke-width: 2.2; stroke-linecap: square"/>
   </g>
   <g id="PathCollection_1">
    <defs>
     <path id="mac1e99eab4" d="M 0 2.828427 
C 0.750108 2.828427 1.469594 2.530406 2 2 
C 2.530406 1.469594 2.828427 0.750108 2.828427 0 
C 2.828427 -0.750108 2.530406 -1.469594 2 -2 
C 1.469594 -2.530406 0.750108 -2.828427 0 -2.828427 
C -0.750108 -2.828427 -1.469594 -2.530406 -2 -2 
C -2.530406 -1.469594 -2.828427 -0.750108 -2.828427 0 
C -2.828427 0.750108 -2.530406 1.469594 -2 2 
C -1.469594 2.530406 -0.750108 2.828427 0 2.828427 
z
" style="stroke: #dfe6f5"/>
    </defs>
    <g clip-path="url(#p4874345c7a)">
     <use xlink:href="#mac1e99eab4" x="145.389084" y="111.964334" style="fill: #dfe6f5; stroke: #dfe6f5"/>
     <use xlink:href="#mac1e99eab4" x="265.487311" y="205.713002" style="fill: #dfe6f5; stroke: #dfe6f5"/>
     <use xlink:href="#mac1e99eab4" x="370.57326" y="249.291484" style="fill: #dfe6f5; stroke: #dfe6f5"/>
    </g>
   </g>
   <g id="legend_1">
    <g id="line2d_19">
     <path d="M 339.025781 22.588594 
L 348.025781 22.588594 
L 357.025781 22.588594 
" style="fill: none; stroke: #dfe6f5; stroke-width: 2.2; stroke-linecap: square"/>
    </g>
    <g id="text_16">
     <!-- true cost-to-go  Q(x) -->
     <g style="fill: #dfe6f5" transform="translate(364.225781 25.738594) scale(0.09 -0.09)">
      <defs>
       <path id="DejaVuSans-10" d="M 313 2009 
L 1997 2009 
L 1997 1497 
L 313 1497 
L 313 2009 
z
" transform="scale(0.015625)"/>
       <path id="DejaVuSans-4a" d="M 2906 1791 
Q 2906 2416 2648 2759 
Q 2391 3103 1925 3103 
Q 1463 3103 1205 2759 
Q 947 2416 947 1791 
Q 947 1169 1205 825 
Q 1463 481 1925 481 
Q 2391 481 2648 825 
Q 2906 1169 2906 1791 
z
M 3481 434 
Q 3481 -459 3084 -895 
Q 2688 -1331 1869 -1331 
Q 1566 -1331 1297 -1286 
Q 1028 -1241 775 -1147 
L 775 -588 
Q 1028 -725 1275 -790 
Q 1522 -856 1778 -856 
Q 2344 -856 2625 -561 
Q 2906 -266 2906 331 
L 2906 616 
Q 2728 306 2450 153 
Q 2172 0 1784 0 
Q 1141 0 747 490 
Q 353 981 353 1791 
Q 353 2603 747 3093 
Q 1141 3584 1784 3584 
Q 2172 3584 2450 3431 
Q 2728 3278 2906 2969 
L 2906 3500 
L 3481 3500 
L 3481 434 
z
" transform="scale(0.015625)"/>
       <path id="DejaVuSans-34" d="M 2522 4238 
Q 1834 4238 1429 3725 
Q 1025 3213 1025 2328 
Q 1025 1447 1429 934 
Q 1834 422 2522 422 
Q 3209 422 3611 934 
Q 4013 1447 4013 2328 
Q 4013 3213 3611 3725 
Q 3209 4238 2522 4238 
z
M 3406 84 
L 4238 -825 
L 3475 -825 
L 2784 -78 
Q 2681 -84 2626 -87 
Q 2572 -91 2522 -91 
Q 1538 -91 948 567 
Q 359 1225 359 2328 
Q 359 3434 948 4092 
Q 1538 4750 2522 4750 
Q 3503 4750 4090 4092 
Q 4678 3434 4678 2328 
Q 4678 1516 4351 937 
Q 4025 359 3406 84 
z
" transform="scale(0.015625)"/>
      </defs>
      <use xlink:href="#DejaVuSans-57"/>
      <use xlink:href="#DejaVuSans-55" transform="translate(39.203125 0)"/>
      <use xlink:href="#DejaVuSans-58" transform="translate(80.3125 0)"/>
      <use xlink:href="#DejaVuSans-48" transform="translate(143.6875 0)"/>
      <use xlink:href="#DejaVuSans-3" transform="translate(205.21875 0)"/>
      <use xlink:href="#DejaVuSans-46" transform="translate(237 0)"/>
      <use xlink:href="#DejaVuSans-52" transform="translate(291.984375 0)"/>
      <use xlink:href="#DejaVuSans-56" transform="translate(353.171875 0)"/>
      <use xlink:href="#DejaVuSans-57" transform="translate(405.265625 0)"/>
      <use xlink:href="#DejaVuSans-10" transform="translate(444.46875 0)"/>
      <use xlink:href="#DejaVuSans-57" transform="translate(480.546875 0)"/>
      <use xlink:href="#DejaVuSans-52" transform="translate(519.75 0)"/>
      <use xlink:href="#DejaVuSans-10" transform="translate(582.796875 0)"/>
      <use xlink:href="#DejaVuSans-4a" transform="translate(618.875 0)"/>
      <use xlink:href="#DejaVuSans-52" transform="translate(682.359375 0)"/>
      <use xlink:href="#DejaVuSans-3" transform="translate(743.546875 0)"/>
      <use xlink:href="#DejaVuSans-3" transform="translate(775.328125 0)"/>
      <use xlink:href="#DejaVuSans-34" transform="translate(807.109375 0)"/>
      <use xlink:href="#DejaVuSans-b" transform="translate(885.828125 0)"/>
      <use xlink:href="#DejaVuSans-5b" transform="translate(924.84375 0)"/>
      <use xlink:href="#DejaVuSans-c" transform="translate(984.03125 0)"/>
     </g>
    </g>
    <g id="line2d_20">
     <path d="M 339.025781 36.089297 
L 348.025781 36.089297 
L 357.025781 36.089297 
" style="fill: none; stroke-dasharray: 3.7,1.6; stroke-dashoffset: 0; stroke: #dfe6f5; stroke-opacity: 0.45"/>
    </g>
    <g id="text_17">
     <!-- Benders cuts -->
     <g style="fill: #dfe6f5" transform="translate(364.225781 39.239297) scale(0.09 -0.09)">
      <defs>
       <path id="DejaVuSans-25" d="M 1259 2228 
L 1259 519 
L 2272 519 
Q 2781 519 3026 730 
Q 3272 941 3272 1375 
Q 3272 1813 3026 2020 
Q 2781 2228 2272 2228 
L 1259 2228 
z
M 1259 4147 
L 1259 2741 
L 2194 2741 
Q 2656 2741 2882 2914 
Q 3109 3088 3109 3444 
Q 3109 3797 2882 3972 
Q 2656 4147 2194 4147 
L 1259 4147 
z
M 628 4666 
L 2241 4666 
Q 2963 4666 3353 4366 
Q 3744 4066 3744 3513 
Q 3744 3084 3544 2831 
Q 3344 2578 2956 2516 
Q 3422 2416 3680 2098 
Q 3938 1781 3938 1306 
Q 3938 681 3513 340 
Q 3088 0 2303 0 
L 628 0 
L 628 4666 
z
" transform="scale(0.015625)"/>
       <path id="DejaVuSans-51" d="M 3513 2113 
L 3513 0 
L 2938 0 
L 2938 2094 
Q 2938 2591 2744 2837 
Q 2550 3084 2163 3084 
Q 1697 3084 1428 2787 
Q 1159 2491 1159 1978 
L 1159 0 
L 581 0 
L 581 3500 
L 1159 3500 
L 1159 2956 
Q 1366 3272 1645 3428 
Q 1925 3584 2291 3584 
Q 2894 3584 3203 3211 
Q 3513 2838 3513 2113 
z
" transform="scale(0.015625)"/>
      </defs>
      <use xlink:href="#DejaVuSans-25"/>
      <use xlink:href="#DejaVuSans-48" transform="translate(68.609375 0)"/>
      <use xlink:href="#DejaVuSans-51" transform="translate(130.140625 0)"/>
      <use xlink:href="#DejaVuSans-47" transform="translate(193.515625 0)"/>
      <use xlink:href="#DejaVuSans-48" transform="translate(257 0)"/>
      <use xlink:href="#DejaVuSans-55" transform="translate(318.53125 0)"/>
      <use xlink:href="#DejaVuSans-56" transform="translate(359.640625 0)"/>
      <use xlink:href="#DejaVuSans-3" transform="translate(411.734375 0)"/>
      <use xlink:href="#DejaVuSans-46" transform="translate(443.515625 0)"/>
      <use xlink:href="#DejaVuSans-58" transform="translate(498.5 0)"/>
      <use xlink:href="#DejaVuSans-57" transform="translate(561.875 0)"/>
      <use xlink:href="#DejaVuSans-56" transform="translate(601.078125 0)"/>
     </g>
    </g>
    <g id="line2d_21">
     <path d="M 339.025781 49.59 
L 348.025781 49.59 
L 357.025781 49.59 
" style="fill: none; stroke: #fb923c; stroke-width: 2.4; stroke-linecap: square"/>
    </g>
    <g id="text_18">
     <!-- cut approximation -->
     <g style="fill: #dfe6f5" transform="translate(364.225781 52.74) scale(0.09 -0.09)">
      <defs>
       <path id="DejaVuSans-50" d="M 3328 2828 
Q 3544 3216 3844 3400 
Q 4144 3584 4550 3584 
Q 5097 3584 5394 3201 
Q 5691 2819 5691 2113 
L 5691 0 
L 5113 0 
L 5113 2094 
Q 5113 2597 4934 2840 
Q 4756 3084 4391 3084 
Q 3944 3084 3684 2787 
Q 3425 2491 3425 1978 
L 3425 0 
L 2847 0 
L 2847 2094 
Q 2847 2600 2669 2842 
Q 2491 3084 2119 3084 
Q 1678 3084 1418 2786 
Q 1159 2488 1159 1978 
L 1159 0 
L 581 0 
L 581 3500 
L 1159 3500 
L 1159 2956 
Q 1356 3278 1631 3431 
Q 1906 3584 2284 3584 
Q 2666 3584 2933 3390 
Q 3200 3197 3328 2828 
z
" transform="scale(0.015625)"/>
      </defs>
      <use xlink:href="#DejaVuSans-46"/>
      <use xlink:href="#DejaVuSans-58" transform="translate(54.984375 0)"/>
      <use xlink:href="#DejaVuSans-57" transform="translate(118.359375 0)"/>
      <use xlink:href="#DejaVuSans-3" transform="translate(157.5625 0)"/>
      <use xlink:href="#DejaVuSans-44" transform="translate(189.34375 0)"/>
      <use xlink:href="#DejaVuSans-53" transform="translate(250.625 0)"/>
      <use xlink:href="#DejaVuSans-53" transform="translate(314.109375 0)"/>
      <use xlink:href="#DejaVuSans-55" transform="translate(377.59375 0)"/>
      <use xlink:href="#DejaVuSans-52" transform="translate(416.5 0)"/>
      <use xlink:href="#DejaVuSans-5b" transform="translate(474.609375 0)"/>
      <use xlink:href="#DejaVuSans-4c" transform="translate(533.796875 0)"/>
      <use xlink:href="#DejaVuSans-50" transform="translate(561.578125 0)"/>
      <use xlink:href="#DejaVuSans-44" transform="translate(658.984375 0)"/>
      <use xlink:href="#DejaVuSans-57" transform="translate(720.265625 0)"/>
      <use xlink:href="#DejaVuSans-4c" transform="translate(759.46875 0)"/>
      <use xlink:href="#DejaVuSans-52" transform="translate(787.25 0)"/>
      <use xlink:href="#DejaVuSans-51" transform="translate(848.4375 0)"/>
     </g>
    </g>
    <g id="PathCollection_2">
     <g>
      <use xlink:href="#mac1e99eab4" x="348.025781" y="63.878203" style="fill: #dfe6f5; stroke: #dfe6f5"/>
     </g>
    </g>
    <g id="text_19">
     <!-- trial points -->
     <g style="fill: #dfe6f5" transform="translate(364.225781 66.240703) scale(0.09 -0.09)">
      <use xlink:href="#DejaVuSans-57"/>
      <use xlink:href="#DejaVuSans-55" transform="translate(39.203125 0)"/>
      <use xlink:href="#DejaVuSans-4c" transform="translate(80.3125 0)"/>
      <use xlink:href="#DejaVuSans-44" transform="translate(108.09375 0)"/>
      <use xlink:href="#DejaVuSans-4f" transform="translate(169.375 0)"/>
      <use xlink:href="#DejaVuSans-3" transform="translate(197.15625 0)"/>
      <use xlink:href="#DejaVuSans-53" transform="translate(228.9375 0)"/>
      <use xlink:href="#DejaVuSans-52" transform="translate(292.421875 0)"/>
      <use xlink:href="#DejaVuSans-4c" transform="translate(353.609375 0)"/>
      <use xlink:href="#DejaVuSans-51" transform="translate(381.390625 0)"/>
      <use xlink:href="#DejaVuSans-57" transform="translate(444.765625 0)"/>
      <use xlink:href="#DejaVuSans-56" transform="translate(483.96875 0)"/>
     </g>
    </g>
   </g>
  </g>
 </g>
 <defs>
  <clipPath id="p4874345c7a">
   <rect x="51.562344" y="10.8" width="412.837656" height="249.477656"/>
  </clipPath>
 </defs>
</svg>
