<svg xmlns="http://www.w3.org/2000/svg" viewBox="0 0 760 470" font-family="Helvetica, Arial, sans-serif">
<defs><marker id="arr" markerWidth="9" markerHeight="9" refX="6" refY="3" orient="auto"><path d="M0,0 L6,3 L0,6 Z" fill="#1b2a4a"/></marker></defs>
<line x1="120" y1="180" x2="380" y2="70" stroke="#1b2a4a" stroke-width="1.6"/>
<text x="250.0" y="119.0" fill="#1b2a4a" font-size="11" text-anchor="middle">p=0.25</text>
<line x1="380" y1="70" x2="640" y2="28" stroke="#1b2a4a" stroke-width="1.2" stroke-opacity="0.8"/>
<line x1="380" y1="70" x2="640" y2="70" stroke="#1b2a4a" stroke-width="1.2" stroke-opacity="0.8"/>
<line x1="380" y1="70" x2="640" y2="112" stroke="#1b2a4a" stroke-width="1.2" stroke-opacity="0.8"/>
<line x1="120" y1="180" x2="380" y2="180" stroke="#1b2a4a" stroke-width="1.6"/>
<text x="250.0" y="174.0" fill="#1b2a4a" font-size="11" text-anchor="middle">p=0.50</text>
<line x1="380" y1="180" x2="640" y2="138" stroke="#1b2a4a" stroke-width="1.2" stroke-opacity="0.8"/>
<line x1="380" y1="180" x2="640" y2="180" stroke="#1b2a4a" stroke-width="1.2" stroke-opacity="0.8"/>
<line x1="380" y1="180" x2="640" y2="222" stroke="#1b2a4a" stroke-width="1.2" stroke-opacity="0.8"/>
<line x1="120" y1="180" x2="380" y2="290" stroke="#c2410c" stroke-width="2.6"/>
<text x="250.0" y="229.0" fill="#1b2a4a" font-size="11" text-anchor="middle">p=0.25</text>
<line x1="380" y1="290" x2="640" y2="248" stroke="#c2410c" stroke-width="2.6"/>
<line x1="380" y1="290" x2="640" y2="290" stroke="#1b2a4a" stroke-width="1.2" stroke-opacity="0.8"/>
<line x1="380" y1="290" x2="640" y2="332" stroke="#1b2a4a" stroke-width="1.2" stroke-opacity="0.8"/>
<circle cx="640" cy="28" r="6" fill="#1b2a4a"/>
<circle cx="640" cy="70" r="6" fill="#1b2a4a"/>
<circle cx="640" cy="112" r="6" fill="#1b2a4a"/>
<circle cx="640" cy="138" r="6" fill="#1b2a4a"/>
<circle cx="640" cy="180" r="6" fill="#1b2a4a"/>
<circle cx="640" cy="222" r="6" fill="#1b2a4a"/>
<circle cx="640" cy="248" r="6" fill="#c2410c"/>
<circle cx="640" cy="290" r="6" fill="#1b2a4a"/>
<circle cx="640" cy="332" r="6" fill="#1b2a4a"/>
<circle cx="380" cy="70" r="8" fill="#1b2a4a"/>
<circle cx="380" cy="180" r="8" fill="#1b2a4a"/>
<circle cx="380" cy="290" r="8" fill="#c2410c"/>
<circle cx="120" cy="180" r="10" fill="#1b2a4a"/>
<text x="120" y="392" fill="#1b2a4a" font-size="13" font-weight="bold" text-anchor="middle">today</text>
<text x="380" y="392" fill="#1b2a4a" font-size="13" font-weight="bold" text-anchor="middle">Stage 1</text>
<text x="380" y="410" fill="#1b2a4a" font-size="11" text-anchor="middle">3 paths</text>
<text x="640" y="392" fill="#1b2a4a" font-size="13" font-weight="bold" text-anchor="middle">Stage 2</text>
<text x="640" y="410" fill="#1b2a4a" font-size="11" text-anchor="middle">9 paths</text>
<text x="706" y="176" fill="#1b2a4a" fill-opacity="0.7" font-size="15" text-anchor="middle">...</text>
<text x="706" y="197" fill="#1b2a4a" fill-opacity="0.7" font-size="10" text-anchor="middle">81 paths</text>
<text x="706" y="210" fill="#1b2a4a" fill-opacity="0.7" font-size="10" text-anchor="middle">by Stage 4</text>
<line x1="90" y1="432" x2="660" y2="432" stroke="#1b2a4a" stroke-width="1.4" marker-end="url(#arr)"/>
<text x="375" y="450" fill="#1b2a4a" font-size="12" font-style="italic" text-anchor="middle">time</text>
</svg>