<svg xmlns="http://www.w3.org/2000/svg" viewBox="0 0 640 546" font-family="Helvetica, Arial, sans-serif">
<defs><marker id="a3" markerWidth="10" markerHeight="10" refX="7" refY="3" orient="auto"><path d="M0,0 L7,3 L0,6 Z" fill="#fb923c"/></marker></defs>
<rect x="60" y="30" width="320" height="52" rx="10" fill="none" stroke="#dfe6f5" stroke-width="1.8"/>
<text x="220.0" y="61.0" fill="#dfe6f5" font-size="13" font-weight="bold" text-anchor="middle">SDDP(container, stage_set, ...)</text>
<text x="398" y="60.0" fill="#dfe6f5" font-size="11">create the sddp instance</text>
<line x1="220.0" y1="82" x2="220.0" y2="112" stroke="#fb923c" stroke-width="2.2" marker-end="url(#a3)"/>
<rect x="60" y="112" width="320" height="52" rx="10" fill="none" stroke="#dfe6f5" stroke-width="1.8"/>
<text x="220.0" y="143.0" fill="#dfe6f5" font-size="13" font-weight="bold" text-anchor="middle">declare model on active_stage</text>
<text x="398" y="142.0" fill="#dfe6f5" font-size="11">variables + gated equations</text>
<line x1="220.0" y1="164" x2="220.0" y2="194" stroke="#fb923c" stroke-width="2.2" marker-end="url(#a3)"/>
<rect x="60" y="194" width="320" height="52" rx="10" fill="none" stroke="#dfe6f5" stroke-width="1.8"/>
<text x="220.0" y="225.0" fill="#dfe6f5" font-size="13" font-weight="bold" text-anchor="middle">add_state()  /  set_noise()</text>
<text x="398" y="224.0" fill="#dfe6f5" font-size="11">register the state and noise</text>
<line x1="220.0" y1="246" x2="220.0" y2="276" stroke="#fb923c" stroke-width="2.2" marker-end="url(#a3)"/>
<rect x="60" y="276" width="320" height="52" rx="10" fill="none" stroke="#dfe6f5" stroke-width="1.8"/>
<text x="220.0" y="307.0" fill="#dfe6f5" font-size="13" font-weight="bold" text-anchor="middle">build(stage_cost=...)</text>
<text x="398" y="306.0" fill="#dfe6f5" font-size="11">inject the SDDP machinery</text>
<line x1="220.0" y1="328" x2="220.0" y2="358" stroke="#fb923c" stroke-width="2.2" marker-end="url(#a3)"/>
<rect x="60" y="358" width="320" height="52" rx="10" fill="none" stroke="#dfe6f5" stroke-width="1.8"/>
<text x="220.0" y="389.0" fill="#dfe6f5" font-size="13" font-weight="bold" text-anchor="middle">train(...)</text>
<text x="398" y="388.0" fill="#dfe6f5" font-size="11">learn the cuts</text>
<line x1="220.0" y1="410" x2="220.0" y2="440" stroke="#fb923c" stroke-width="2.2" marker-end="url(#a3)"/>
<rect x="60" y="440" width="320" height="52" rx="10" fill="none" stroke="#dfe6f5" stroke-width="1.8"/>
<text x="220.0" y="471.0" fill="#dfe6f5" font-size="13" font-weight="bold" text-anchor="middle">policy()  /  simulate()</text>
<text x="398" y="470.0" fill="#dfe6f5" font-size="11">use the trained policy</text>
<text x="220.0" y="526" fill="#dfe6f5" font-size="11" font-style="italic" text-anchor="middle">save() / load() persist a trained policy</text>
</svg>