<?xml version="1.0" encoding="iso-8859-1"?>
<!-- Uploaded to: SVG Repo, www.svgrepo.com, Generator: SVG Repo Mixer Tools -->
<svg fill="#000000" height="800px" width="800px" version="1.1" id="Layer_1" xmlns="http://www.w3.org/2000/svg" xmlns:xlink="http://www.w3.org/1999/xlink" 
	 viewBox="0 0 463 463" xml:space="preserve">
<g>
	<g>
		<g>
			<path d="M391.848,16H175v-0.5C175,6.953,168.047,0,159.5,0h-32C118.953,0,112,6.953,112,15.5V16H71.152
				C58.386,16,48,26.542,48,39.5v400c0,12.958,10.386,23.5,23.152,23.5h320.696C404.614,463,415,452.458,415,439.5v-400
				C415,26.542,404.614,16,391.848,16z M127,15.5c0-0.275,0.224-0.5,0.5-0.5h32c0.276,0,0.5,0.225,0.5,0.5v81.986l-12.34-8.227
				c-1.26-0.84-2.71-1.26-4.16-1.26s-2.9,0.42-4.16,1.26L127,97.486V15.5z M400.001,439.5H400c0,4.687-3.657,8.5-8.152,8.5H71.152
				c-4.495,0-8.152-3.813-8.152-8.5v-400c0-4.687,3.657-8.5,8.152-8.5H112v80.5c0,2.766,1.522,5.308,3.961,6.612
				c2.438,1.306,5.398,1.163,7.699-0.372l19.84-13.227l19.84,13.227c1.255,0.837,2.706,1.26,4.161,1.26
				c1.213,0,2.43-0.294,3.539-0.888c2.438-1.305,3.961-3.847,3.961-6.612V31h216.848c4.495,0,8.152,3.813,8.152,8.5V439.5z"/>
			<path d="M87.5,48c-4.142,0-7.5,3.357-7.5,7.5v368c0,4.143,3.358,7.5,7.5,7.5c4.142,0,7.5-3.357,7.5-7.5v-368
				C95,51.357,91.642,48,87.5,48z"/>
			<path d="M239.5,104c-4.142,0-7.5,3.357-7.5,7.5V168h-9v-56.5c0-4.143-3.358-7.5-7.5-7.5c-4.142,0-7.5,3.357-7.5,7.5V168h-9v-56.5
				c0-4.143-3.358-7.5-7.5-7.5c-4.142,0-7.5,3.357-7.5,7.5v72c0,12.958,10.542,23.5,23.5,23.5h0.5v168.5c0,4.143,3.358,7.5,7.5,7.5
				c4.142,0,7.5-3.357,7.5-7.5V207h0.5c12.958,0,23.5-10.542,23.5-23.5v-72C247,107.357,243.642,104,239.5,104z M232,183.5
				c0,4.687-3.813,8.5-8.5,8.5h-16c-4.687,0-8.5-3.813-8.5-8.5V183h33V183.5z"/>
			<path d="M295.719,118.317c-0.816-8.162-7.617-14.317-15.82-14.317c-8.767,0-15.899,7.133-15.899,15.899V375.5
				c0,4.143,3.358,7.5,7.5,7.5c4.142,0,7.5-3.357,7.5-7.5V295h6.987c6.585,0,12.909-2.788,17.35-7.649
				c4.441-4.861,6.647-11.411,6.054-17.969L295.719,118.317z M292.262,277.233c-1.63,1.784-3.858,2.767-6.275,2.767H279V119.899
				c0-0.496,0.403-0.899,0.899-0.899c0.464,0,0.849,0.348,0.888,0.739l13.665,150.994
				C294.67,273.141,293.892,275.449,292.262,277.233z"/>
		</g>
	</g>
</g>
</svg>