<?xml version="1.0" encoding="utf-8"?><!-- Uploaded to: SVG Repo, www.svgrepo.com, Generator: SVG Repo Mixer Tools -->
<svg width="800px" height="800px" viewBox="0 0 24 24" fill="none" xmlns="http://www.w3.org/2000/svg">
<path d="M18.5 6C19.8807 6 21 4.88071 21 3.5C21 2.11929 19.8807 1 18.5 1C17.1193 1 16 2.11929 16 3.5C16 4.88071 17.1193 6 18.5 6Z" fill="#0F0F0F"/>
<path d="M9.49967 3.9377L7.47 5.20625C7.11268 5.42957 7 5.79894 7 6.19575C7 6.98119 7.86395 7.46003 8.53 7.04375L10.4185 5.86341C10.7689 5.64441 11.218 5.66348 11.5485 5.91141L13 7L9.29261 10.7074C9.09787 10.9021 8.91955 11.1126 8.75947 11.3367L6.94614 13.8754C6.683 14.2438 6.20519 14.3894 5.78129 14.2305L3.21008 13.2663C2.7942 13.1103 2.3257 13.2614 2.07933 13.631C1.76802 14.098 1.92419 14.7314 2.41688 15.0001L4.88909 16.3486C6.12269 17.0215 7.65806 16.7479 8.58338 15.6904L10.5 13.5L12.3001 16.0201C12.7307 16.623 12.7928 17.4144 12.4615 18.077L10.7236 21.5528C10.3912 22.2177 10.8746 23 11.618 23C12.0887 23 12.5417 22.9167 12.7764 22.4472L14.7476 18.5049C15.2149 17.5701 15.1622 16.4595 14.6083 15.5732L13 13L16 10L17.3722 10.9148C18.6066 11.7378 19.9731 11.6756 21.3162 11.2279C21.7813 11.0729 22 10.6447 22 10.1805C22 9.56252 21.4451 9.09248 20.8356 9.19407C20.1453 9.30911 19.1462 9.69488 18.6352 9.01366C16.9655 6.78731 14.9948 5.21933 12.5466 3.85922C11.5923 3.32907 10.4254 3.35913 9.49967 3.9377Z" fill="#0F0F0F"/>
</svg>